<svg width="179" height="264" viewBox="0 0 179 264" fill="none" xmlns="http://www.w3.org/2000/svg">
<path d="M113.37 69.7458C99.8038 78.8132 100.376 97.419 100.376 97.419C100.376 97.419 81.85 82.0572 61.3498 89.2144C40.8497 96.3716 31.9906 122.931 45.85 138.557C71.9908 165.431 87.3233 167.117 126.392 172.01C134.939 160.187 169.85 130.057 164.85 89.5572C162.187 67.9895 129.527 58.9473 113.37 69.7458Z" fill="#CCE1F0"/>
<path d="M170.256 225.055C172.842 236.63 162.06 263.688 136.379 258.268C119.855 254.781 118.85 240.557 117.35 233.057C115.27 222.657 124.238 204.168 135.85 192.057C144.889 195.672 164.559 199.557 170.256 225.055Z" fill="#CCE1F0"/>
<path d="M156.269 73.0411C160.855 76.0702 163.792 79.3828 166.256 82.9493C168.719 86.5153 170.703 90.381 171.774 95.6984C173.669 105.107 170.107 115.696 166.256 127.835C160.747 145.205 149.42 160.196 140.662 176.047L131.223 173.245C131.223 173.245 147.31 152.376 153.798 138.482C162.895 118.999 175.479 84.6355 148.168 75.4188C123.843 67.2099 104.74 89.4728 108.248 111.451C108.248 111.451 101.842 103.93 99.4547 102.445C84.6363 90.7915 58.3327 95.6984 52.0199 114.383C43.0483 140.937 63.9405 155.916 84.6363 165.153C99.2621 171.681 107.088 170.36 123.396 174.765C144.517 180.47 163.851 189.612 170.81 206.438C176.547 220.314 175.316 238.432 161.788 248.27C155.914 252.541 151.457 253.722 144.222 254.395C130.221 255.697 118.601 252.446 110.942 240.671C104.646 230.995 105.35 221.057 108.248 211.247C111.27 201.015 122.653 187.003 122.653 187.003L131.85 190.057C131.85 190.057 111.537 211.852 113.85 228.057C115.28 238.077 125.408 242.515 135.602 243.671C152.668 245.605 172.5 233.162 166.647 211.247C162.288 194.923 134.845 186.783 121.119 182.627C94.8909 174.686 74.8784 174.567 54.9842 159.176C49.8676 155.216 47.6853 153.791 44.2859 149.204C40.4042 143.965 38.2932 140.471 37.3507 134.023C36.3487 127.168 37.5538 122.937 40.1197 116.501C42.5681 110.36 44.7066 106.938 49.5624 102.445C60.3326 92.4804 76.7196 84.3972 92.1765 91.822C96.9724 94.1258 103.042 100.035 103.042 100.035C103.042 100.035 104.618 85.1922 110.308 78.2595C114.845 72.7323 118.639 70.1004 125.478 67.9914C132.003 65.9792 138.67 66.6285 142.962 67.6883C147.253 68.748 151.596 69.9544 156.269 73.0411Z" fill="#2F80ED"/>
<path d="M38.1827 73.2578C37.5019 80.8181 31.1114 86.421 23.9091 85.7725C16.7068 85.1239 11.4201 78.4694 12.1009 70.9092C12.7817 63.3489 19.1722 57.746 26.3745 58.3945C33.5768 59.0431 38.8635 65.6976 38.1827 73.2578Z" fill="#CCE1F0"/>
<path d="M27.1646 108.581C26.4838 116.141 20.0933 121.744 12.891 121.096C5.68875 120.447 0.402058 113.793 1.08286 106.233C1.76366 98.6723 8.15416 93.0693 15.3564 93.7179C22.5587 94.3665 27.8454 101.021 27.1646 108.581Z" fill="#CCE1F0"/>
<path d="M168.836 25.4801C167.712 37.958 157.281 47.2161 145.537 46.1585C133.794 45.101 125.184 34.1283 126.308 21.6504C127.432 9.17251 137.863 -0.0855306 149.606 0.972004C161.35 2.02954 169.96 13.0022 168.836 25.4801Z" fill="#CCE1F0"/>
<path d="M115.343 27.2068C114.479 36.7942 106.465 43.9076 97.4414 43.095C88.4181 42.2824 81.8031 33.8516 82.6665 24.2643C83.5298 14.6769 91.5445 7.56348 100.568 8.37604C109.591 9.18859 116.206 17.6194 115.343 27.2068Z" fill="#CCE1F0"/>
<path d="M69.1753 46.9365C68.464 54.8356 61.8606 60.6963 54.4263 60.0269C46.992 59.3574 41.5419 52.4112 42.2532 44.5122C42.9646 36.6131 49.5679 30.7523 57.0022 31.4218C64.4366 32.0913 69.8866 39.0374 69.1753 46.9365Z" fill="#CCE1F0"/>
<path d="M124.132 30.6044C123.505 43.0466 132.251 53.58 143.666 54.1314C155.532 57.3387 165.266 47.7337 165.469 32.6013C165.36 21.7438 158.408 10.0092 146.031 9.35117C133.598 8.69016 126.098 19.3536 124.132 30.6044Z" stroke="#2F80ED" stroke-width="6.51116"/>
<path d="M81.7934 35.0448C81.3521 26.0461 87.3012 16.9496 96.3231 17.1071C105.037 17.2591 109.849 22.7052 110.489 34.3263C110.749 42.6627 109.357 49.2559 99.5983 51.5082C90.135 53.6923 82.2568 44.4958 81.7934 35.0448Z" stroke="#2F80ED" stroke-width="6.51116"/>
<path d="M48.3125 58.7693C45.1638 51.7209 47.0871 42.6145 54.3398 39.9452C61.3453 37.3669 66.8794 40.2249 71.0019 49.3057C73.8 55.8817 74.7378 61.5773 67.6455 66.399C60.768 71.0747 51.6195 66.1722 48.3125 58.7693Z" stroke="#2F80ED" stroke-width="6.51116"/>
<path d="M23.1383 81.8903C19.1967 76.291 19.3186 68.039 25.1756 64.4836C30.833 61.0494 36.1364 62.5964 41.2719 69.799C44.8279 75.0466 46.6147 79.844 41.2641 85.2455C36.0755 90.4832 27.2781 87.771 23.1383 81.8903Z" stroke="#2F80ED" stroke-width="6.51116"/>
<path d="M11.6518 111.735C7.91515 108.243 6.74319 102.193 10.4809 98.7019C14.0912 95.3299 18.204 95.6527 23.0583 100.135C26.4593 103.429 28.4985 106.663 25.413 111.426C22.421 116.045 15.5763 115.403 11.6518 111.735Z" stroke="#2F80ED" stroke-width="6.51116"/>
</svg>
