<svg width="798" height="145" viewBox="0 0 798 145" fill="none" xmlns="http://www.w3.org/2000/svg">
<path d="M148.029 32V9.6H152.317L161.853 25.408H159.581L168.957 9.6H173.213L173.277 32H168.413L168.381 17.056H169.277L161.789 29.632H159.453L151.805 17.056H152.893V32H148.029ZM190.912 32.384C189.141 32.384 187.498 32.096 185.984 31.52C184.49 30.944 183.189 30.1333 182.08 29.088C180.992 28.0427 180.138 26.816 179.52 25.408C178.922 24 178.624 22.464 178.624 20.8C178.624 19.136 178.922 17.6 179.52 16.192C180.138 14.784 181.002 13.5573 182.112 12.512C183.221 11.4667 184.522 10.656 186.016 10.08C187.509 9.504 189.13 9.216 190.88 9.216C192.65 9.216 194.272 9.504 195.744 10.08C197.237 10.656 198.528 11.4667 199.616 12.512C200.725 13.5573 201.589 14.784 202.208 16.192C202.826 17.5787 203.136 19.1147 203.136 20.8C203.136 22.464 202.826 24.0107 202.208 25.44C201.589 26.848 200.725 28.0747 199.616 29.12C198.528 30.144 197.237 30.944 195.744 31.52C194.272 32.096 192.661 32.384 190.912 32.384ZM190.88 27.968C191.882 27.968 192.8 27.7973 193.632 27.456C194.485 27.1147 195.232 26.624 195.872 25.984C196.512 25.344 197.002 24.5867 197.344 23.712C197.706 22.8373 197.888 21.8667 197.888 20.8C197.888 19.7333 197.706 18.7627 197.344 17.888C197.002 17.0133 196.512 16.256 195.872 15.616C195.253 14.976 194.517 14.4853 193.664 14.144C192.81 13.8027 191.882 13.632 190.88 13.632C189.877 13.632 188.949 13.8027 188.096 14.144C187.264 14.4853 186.528 14.976 185.888 15.616C185.248 16.256 184.746 17.0133 184.384 17.888C184.042 18.7627 183.872 19.7333 183.872 20.8C183.872 21.8453 184.042 22.816 184.384 23.712C184.746 24.5867 185.237 25.344 185.856 25.984C186.496 26.624 187.242 27.1147 188.096 27.456C188.949 27.7973 189.877 27.968 190.88 27.968ZM208.472 32V9.6H218.168C220.173 9.6 221.901 9.93067 223.352 10.592C224.802 11.232 225.922 12.16 226.712 13.376C227.501 14.592 227.896 16.0427 227.896 17.728C227.896 19.392 227.501 20.832 226.712 22.048C225.922 23.2427 224.802 24.16 223.352 24.8C221.901 25.44 220.173 25.76 218.168 25.76H211.352L213.656 23.488V32H208.472ZM222.712 32L217.112 23.872H222.648L228.312 32H222.712ZM213.656 24.064L211.352 21.632H217.88C219.48 21.632 220.674 21.2907 221.464 20.608C222.253 19.904 222.648 18.944 222.648 17.728C222.648 16.4907 222.253 15.5307 221.464 14.848C220.674 14.1653 219.48 13.824 217.88 13.824H211.352L213.656 11.36V24.064ZM238.211 18.624H248.995V22.656H238.211V18.624ZM238.595 27.84H250.787V32H233.443V9.6H250.371V13.76H238.595V27.84ZM260.992 32V13.824H253.824V9.6H273.344V13.824H266.176V32H260.992ZM288.14 32.384C286.37 32.384 284.727 32.096 283.212 31.52C281.719 30.944 280.418 30.1333 279.308 29.088C278.22 28.0427 277.367 26.816 276.748 25.408C276.151 24 275.852 22.464 275.852 20.8C275.852 19.136 276.151 17.6 276.748 16.192C277.367 14.784 278.231 13.5573 279.34 12.512C280.45 11.4667 281.751 10.656 283.244 10.08C284.738 9.504 286.359 9.216 288.108 9.216C289.879 9.216 291.5 9.504 292.972 10.08C294.466 10.656 295.756 11.4667 296.844 12.512C297.954 13.5573 298.818 14.784 299.436 16.192C300.055 17.5787 300.364 19.1147 300.364 20.8C300.364 22.464 300.055 24.0107 299.436 25.44C298.818 26.848 297.954 28.0747 296.844 29.12C295.756 30.144 294.466 30.944 292.972 31.52C291.5 32.096 289.89 32.384 288.14 32.384ZM288.108 27.968C289.111 27.968 290.028 27.7973 290.86 27.456C291.714 27.1147 292.46 26.624 293.1 25.984C293.74 25.344 294.231 24.5867 294.572 23.712C294.935 22.8373 295.116 21.8667 295.116 20.8C295.116 19.7333 294.935 18.7627 294.572 17.888C294.231 17.0133 293.74 16.256 293.1 15.616C292.482 14.976 291.746 14.4853 290.892 14.144C290.039 13.8027 289.111 13.632 288.108 13.632C287.106 13.632 286.178 13.8027 285.324 14.144C284.492 14.4853 283.756 14.976 283.116 15.616C282.476 16.256 281.975 17.0133 281.612 17.888C281.271 18.7627 281.1 19.7333 281.1 20.8C281.1 21.8453 281.271 22.816 281.612 23.712C281.975 24.5867 282.466 25.344 283.084 25.984C283.724 26.624 284.471 27.1147 285.324 27.456C286.178 27.7973 287.106 27.968 288.108 27.968ZM305.7 32V9.6H309.988L323.204 25.728H321.124V9.6H326.244V32H321.988L308.74 15.872H310.82V32H305.7ZM343.487 32V9.6H354.431C357.247 9.6 359.359 10.1333 360.767 11.2C362.196 12.2667 362.911 13.6747 362.911 15.424C362.911 16.5973 362.623 17.6213 362.047 18.496C361.471 19.3493 360.681 20.0107 359.679 20.48C358.676 20.9493 357.524 21.184 356.223 21.184L356.831 19.872C358.239 19.872 359.487 20.1067 360.575 20.576C361.663 21.024 362.505 21.696 363.103 22.592C363.721 23.488 364.031 24.5867 364.031 25.888C364.031 27.808 363.273 29.312 361.759 30.4C360.244 31.4667 358.015 32 355.071 32H343.487ZM348.639 28.096H354.687C356.031 28.096 357.044 27.8827 357.727 27.456C358.431 27.008 358.783 26.304 358.783 25.344C358.783 24.4053 358.431 23.712 357.727 23.264C357.044 22.7947 356.031 22.56 354.687 22.56H348.255V18.784H353.791C355.049 18.784 356.009 18.5707 356.671 18.144C357.353 17.696 357.695 17.024 357.695 16.128C357.695 15.2533 357.353 14.6027 356.671 14.176C356.009 13.728 355.049 13.504 353.791 13.504H348.639V28.096ZM366.451 32L376.435 9.6H381.555L391.571 32H386.131L377.939 12.224H379.987L371.763 32H366.451ZM371.443 27.2L372.819 23.264H384.339L385.747 27.2H371.443ZM399.528 32V22.848L400.712 25.984L390.856 9.6H396.36L403.912 22.176H400.744L408.328 9.6H413.416L403.56 25.984L404.712 22.848V32H399.528Z" fill="#063275"/>
<path d="M148.027 95.9961V51.1961H156.603L175.675 82.8121H171.131L189.883 51.1961H198.395L198.523 95.9961H188.795L188.731 66.1081H190.523L175.547 91.2601H170.875L155.579 66.1081H157.755V95.9961H148.027ZM232.192 96.7641C228.651 96.7641 225.365 96.1881 222.336 95.0361C219.349 93.8841 216.747 92.2628 214.528 90.1721C212.352 88.0814 210.645 85.6281 209.408 82.8121C208.213 79.9961 207.616 76.9241 207.616 73.5961C207.616 70.2681 208.213 67.1961 209.408 64.3801C210.645 61.5641 212.373 59.1108 214.592 57.0201C216.811 54.9294 219.413 53.3081 222.4 52.1561C225.387 51.0041 228.629 50.4281 232.128 50.4281C235.669 50.4281 238.912 51.0041 241.856 52.1561C244.843 53.3081 247.424 54.9294 249.6 57.0201C251.819 59.1108 253.547 61.5641 254.784 64.3801C256.021 67.1534 256.64 70.2254 256.64 73.5961C256.64 76.9241 256.021 80.0174 254.784 82.8761C253.547 85.6921 251.819 88.1454 249.6 90.2361C247.424 92.2841 244.843 93.8841 241.856 95.0361C238.912 96.1881 235.691 96.7641 232.192 96.7641ZM232.128 87.9321C234.133 87.9321 235.968 87.5908 237.632 86.9081C239.339 86.2254 240.832 85.2441 242.112 83.9641C243.392 82.6841 244.373 81.1694 245.056 79.4201C245.781 77.6708 246.144 75.7294 246.144 73.5961C246.144 71.4628 245.781 69.5214 245.056 67.7721C244.373 66.0228 243.392 64.5081 242.112 63.2281C240.875 61.9481 239.403 60.9668 237.696 60.2841C235.989 59.6014 234.133 59.2601 232.128 59.2601C230.123 59.2601 228.267 59.6014 226.56 60.2841C224.896 60.9668 223.424 61.9481 222.144 63.2281C220.864 64.5081 219.861 66.0228 219.136 67.7721C218.453 69.5214 218.112 71.4628 218.112 73.5961C218.112 75.6868 218.453 77.6281 219.136 79.4201C219.861 81.1694 220.843 82.6841 222.08 83.9641C223.36 85.2441 224.853 86.2254 226.56 86.9081C228.267 87.5908 230.123 87.9321 232.128 87.9321ZM265.712 95.9961V51.1961H287.6C293.232 51.1961 297.456 52.2628 300.272 54.3961C303.131 56.5294 304.56 59.3454 304.56 62.8441C304.56 65.1908 303.984 67.2388 302.832 68.9881C301.68 70.6948 300.101 72.0174 298.096 72.9561C296.091 73.8948 293.787 74.3641 291.184 74.3641L292.4 71.7401C295.216 71.7401 297.712 72.2094 299.888 73.1481C302.064 74.0441 303.749 75.3881 304.944 77.1801C306.181 78.9721 306.8 81.1694 306.8 83.7721C306.8 87.6121 305.285 90.6201 302.256 92.7961C299.227 94.9294 294.768 95.9961 288.88 95.9961H265.712ZM276.016 88.1881H288.112C290.8 88.1881 292.827 87.7614 294.192 86.9081C295.6 86.0121 296.304 84.6041 296.304 82.6841C296.304 80.8068 295.6 79.4201 294.192 78.5241C292.827 77.5854 290.8 77.1161 288.112 77.1161H275.248V69.5641H286.32C288.837 69.5641 290.757 69.1374 292.08 68.2841C293.445 67.3881 294.128 66.0441 294.128 64.2521C294.128 62.5028 293.445 61.2014 292.08 60.3481C290.757 59.4521 288.837 59.0041 286.32 59.0041H276.016V88.1881ZM315.93 95.9961V51.1961H326.298V95.9961H315.93ZM338.21 95.9961V51.1961H348.578V87.5481H371.042V95.9961H338.21ZM387.651 69.2441H409.219V77.3081H387.651V69.2441ZM388.419 87.6761H412.803V95.9961H378.115V51.1961H411.971V59.5161H388.419V87.6761ZM441.737 95.9961V51.1961H461.129C465.14 51.1961 468.596 51.8574 471.497 53.1801C474.398 54.4601 476.638 56.3161 478.217 58.7481C479.796 61.1801 480.585 64.0814 480.585 67.4521C480.585 70.7801 479.796 73.6601 478.217 76.0921C476.638 78.5241 474.398 80.4014 471.497 81.7241C468.596 83.0041 465.14 83.6441 461.129 83.6441H447.497L452.105 78.9721V95.9961H441.737ZM452.105 80.1241L447.497 75.1961H460.553C463.753 75.1961 466.142 74.5134 467.721 73.1481C469.3 71.7828 470.089 69.8841 470.089 67.4521C470.089 64.9774 469.3 63.0574 467.721 61.6921C466.142 60.3268 463.753 59.6441 460.553 59.6441H447.497L452.105 54.7161V80.1241ZM511.652 96.7641C508.111 96.7641 504.825 96.1881 501.796 95.0361C498.809 93.8841 496.207 92.2628 493.988 90.1721C491.812 88.0814 490.105 85.6281 488.868 82.8121C487.673 79.9961 487.076 76.9241 487.076 73.5961C487.076 70.2681 487.673 67.1961 488.868 64.3801C490.105 61.5641 491.833 59.1108 494.052 57.0201C496.271 54.9294 498.873 53.3081 501.86 52.1561C504.847 51.0041 508.089 50.4281 511.588 50.4281C515.129 50.4281 518.372 51.0041 521.316 52.1561C524.303 53.3081 526.884 54.9294 529.06 57.0201C531.279 59.1108 533.007 61.5641 534.244 64.3801C535.481 67.1534 536.1 70.2254 536.1 73.5961C536.1 76.9241 535.481 80.0174 534.244 82.8761C533.007 85.6921 531.279 88.1454 529.06 90.2361C526.884 92.2841 524.303 93.8841 521.316 95.0361C518.372 96.1881 515.151 96.7641 511.652 96.7641ZM511.588 87.9321C513.593 87.9321 515.428 87.5908 517.092 86.9081C518.799 86.2254 520.292 85.2441 521.572 83.9641C522.852 82.6841 523.833 81.1694 524.516 79.4201C525.241 77.6708 525.604 75.7294 525.604 73.5961C525.604 71.4628 525.241 69.5214 524.516 67.7721C523.833 66.0228 522.852 64.5081 521.572 63.2281C520.335 61.9481 518.863 60.9668 517.156 60.2841C515.449 59.6014 513.593 59.2601 511.588 59.2601C509.583 59.2601 507.727 59.6014 506.02 60.2841C504.356 60.9668 502.884 61.9481 501.604 63.2281C500.324 64.5081 499.321 66.0228 498.596 67.7721C497.913 69.5214 497.572 71.4628 497.572 73.5961C497.572 75.6868 497.913 77.6281 498.596 79.4201C499.321 81.1694 500.303 82.6841 501.54 83.9641C502.82 85.2441 504.313 86.2254 506.02 86.9081C507.727 87.5908 509.583 87.9321 511.588 87.9321ZM545.172 95.9961V51.1961H565.524C570.388 51.1961 574.676 52.1348 578.388 54.0121C582.1 55.8468 585.001 58.4281 587.092 61.7561C589.183 65.0841 590.228 69.0308 590.228 73.5961C590.228 78.1188 589.183 82.0654 587.092 85.4361C585.001 88.7641 582.1 91.3668 578.388 93.2441C574.676 95.0788 570.388 95.9961 565.524 95.9961H545.172ZM555.54 87.4841H565.012C567.999 87.4841 570.58 86.9294 572.756 85.8201C574.975 84.6681 576.681 83.0468 577.876 80.9561C579.113 78.8654 579.732 76.4121 579.732 73.5961C579.732 70.7374 579.113 68.2841 577.876 66.2361C576.681 64.1454 574.975 62.5454 572.756 61.4361C570.58 60.2841 567.999 59.7081 565.012 59.7081H555.54V87.4841ZM599.327 95.9961V51.1961H609.695V95.9961H599.327ZM615.719 95.9961L635.687 51.1961H645.927L665.959 95.9961H655.079L638.695 56.4441H642.791L626.343 95.9961H615.719ZM625.703 86.3961L628.455 78.5241H651.495L654.311 86.3961H625.703ZM678.917 95.9961V59.6441H664.581V51.1961H703.621V59.6441H689.285V95.9961H678.917ZM710.48 95.9961V51.1961H729.872C733.882 51.1961 737.338 51.8574 740.24 53.1801C743.141 54.4601 745.381 56.3161 746.96 58.7481C748.538 61.1801 749.328 64.0814 749.328 67.4521C749.328 70.7801 748.538 73.6601 746.96 76.0921C745.381 78.4814 743.141 80.3161 740.24 81.5961C737.338 82.8761 733.882 83.5161 729.872 83.5161H716.24L720.848 78.9721V95.9961H710.48ZM738.96 95.9961L727.76 79.7401H738.832L750.16 95.9961H738.96ZM720.848 80.1241L716.24 75.2601H729.296C732.496 75.2601 734.885 74.5774 736.464 73.2121C738.042 71.8041 738.832 69.8841 738.832 67.4521C738.832 64.9774 738.042 63.0574 736.464 61.6921C734.885 60.3268 732.496 59.6441 729.296 59.6441H716.24L720.848 54.7161V80.1241ZM769.333 95.9961V77.6921L771.701 83.9641L751.989 51.1961H762.997L778.101 76.3481H771.765L786.933 51.1961H797.109L777.397 83.9641L779.701 77.6921V95.9961H769.333Z" fill="#2F80ED"/>
<path d="M61.6864 38.2049C54.2488 43.1759 54.5626 53.376 54.5626 53.376C54.5626 53.376 44.4062 44.9543 33.1675 48.878C21.9288 52.8018 17.0721 67.362 24.6701 75.9289C39.0011 90.6615 47.4068 91.5863 68.8252 94.2684C73.511 87.787 92.6499 71.269 89.9088 49.066C88.449 37.2421 70.544 32.2849 61.6864 38.2049Z" fill="#CCE1F0"/>
<path d="M92.8722 123.349C94.2899 129.695 88.3792 144.528 74.3 141.557C65.2411 139.645 64.6903 131.848 63.8679 127.736C62.7275 122.034 67.6439 111.898 74.0103 105.259C78.9657 107.241 89.7491 109.371 92.8722 123.349Z" fill="#CCE1F0"/>
<path d="M85.2043 40.0114C87.7182 41.6721 89.3285 43.4881 90.6796 45.4433C92.0296 47.3983 93.1175 49.5176 93.7046 52.4327C94.7433 57.5909 92.7905 63.3958 90.6796 70.0505C87.6589 79.5734 81.4492 87.7921 76.648 96.4815L71.4736 94.9456C71.4736 94.9456 80.2927 83.5045 83.8494 75.8875C88.8367 65.2065 95.7354 46.3678 80.763 41.315C67.4276 36.8146 56.9551 49.0197 58.8779 61.0689C58.8779 61.0689 55.366 56.9453 54.0574 56.1313C45.9336 49.7427 31.5133 52.4327 28.0525 62.6762C23.134 77.2338 34.5876 85.4453 45.9336 90.5094C53.9517 94.0883 58.242 93.3638 67.1823 95.7787C78.7614 98.9064 89.361 103.919 93.1762 113.143C96.321 120.75 95.6465 130.683 88.2297 136.076C85.0097 138.417 82.5662 139.065 78.5999 139.434C70.9243 140.148 64.554 138.365 60.3547 131.91C56.9035 126.605 57.2893 121.157 58.8779 115.779C60.535 110.17 66.7751 102.488 66.7751 102.488L71.8172 104.162C71.8172 104.162 60.6811 116.111 61.9492 124.995C62.7332 130.488 68.2855 132.921 73.8743 133.555C83.2299 134.615 94.1026 127.794 90.8939 115.779C88.5038 106.83 73.4593 102.367 65.9345 100.089C51.5554 95.7355 40.5841 95.6705 29.6776 87.2324C26.8725 85.0616 25.6762 84.2806 23.8125 81.7656C21.6845 78.8939 20.5272 76.9779 20.0105 73.4431C19.4612 69.6852 20.1218 67.3657 21.5285 63.8373C22.8708 60.4706 24.0432 58.5943 26.7052 56.1313C32.6097 50.6685 41.5934 46.2372 50.0673 50.3076C52.6965 51.5706 56.0241 54.8101 56.0241 54.8101C56.0241 54.8101 56.8879 46.673 60.0074 42.8723C62.4944 39.8422 64.5749 38.3993 68.3239 37.2431C71.9009 36.14 75.5563 36.4959 77.9089 37.0769C80.2616 37.6579 82.6426 38.3193 85.2043 40.0114Z" fill="#2F80ED"/>
<path d="M20.4667 40.1303C20.0935 44.275 16.5901 47.3467 12.6416 46.9911C8.69316 46.6355 5.79487 42.9874 6.1681 38.8427C6.54133 34.698 10.0448 31.6263 13.9932 31.9819C17.9417 32.3374 20.84 35.9856 20.4667 40.1303Z" fill="#CCE1F0"/>
<path d="M14.4262 59.4954C14.053 63.6401 10.5495 66.7118 6.60109 66.3562C2.65263 66.0006 -0.245657 62.3525 0.127575 58.2078C0.500807 54.0631 4.00423 50.9914 7.95268 51.347C11.9011 51.7025 14.7994 55.3507 14.4262 59.4954Z" fill="#CCE1F0"/>
<path d="M92.0937 13.9374C91.4777 20.7781 85.7591 25.8536 79.3209 25.2738C72.8827 24.6941 68.1629 18.6786 68.7789 11.8379C69.3949 4.99725 75.1135 -0.0782286 81.5517 0.501537C87.9899 1.0813 92.7097 7.09676 92.0937 13.9374Z" fill="#CCE1F0"/>
<path d="M62.7677 14.884C62.2944 20.14 57.9005 24.0398 52.9537 23.5943C48.0069 23.1488 44.3805 18.5269 44.8538 13.2708C45.3271 8.01481 49.7209 4.11508 54.6677 4.56054C59.6145 5.006 63.241 9.62797 62.7677 14.884Z" fill="#CCE1F0"/>
<path d="M37.4576 25.7004C37.0676 30.0308 33.4475 33.2438 29.3718 32.8768C25.2962 32.5098 22.3083 28.7017 22.6983 24.3713C23.0882 20.0408 26.7084 16.8278 30.784 17.1948C34.8597 17.5618 37.8476 21.3699 37.4576 25.7004Z" fill="#CCE1F0"/>
<path d="M67.5859 16.7468C67.2424 23.5679 72.037 29.3425 78.295 29.6448C84.8005 31.4031 90.1369 26.1374 90.248 17.8415C90.188 11.8892 86.3773 5.45599 79.5918 5.09524C72.7757 4.73285 68.6638 10.5788 67.5859 16.7468Z" stroke="#2F80ED" stroke-width="3.56957"/>
<path d="M44.3751 19.1811C44.1332 14.2478 47.3946 9.26089 52.3406 9.3472C57.118 9.43057 59.7557 12.4162 60.1066 18.7872C60.2491 23.3574 59.4862 26.972 54.1361 28.2067C48.9482 29.4041 44.6291 24.3623 44.3751 19.1811Z" stroke="#2F80ED" stroke-width="3.56957"/>
<path d="M26.0201 32.1874C24.2939 28.3233 25.3483 23.331 29.3244 21.8676C33.1649 20.4541 36.1989 22.0209 38.4589 26.9993C39.9929 30.6044 40.5071 33.7268 36.6188 36.3702C32.8485 38.9335 27.833 36.2459 26.0201 32.1874Z" stroke="#2F80ED" stroke-width="3.56957"/>
<path d="M12.219 44.8629C10.0581 41.7932 10.1249 37.2693 13.3359 35.3201C16.4374 33.4374 19.3448 34.2855 22.1602 38.2341C24.1097 41.111 25.0893 43.7411 22.156 46.7023C19.3115 49.5737 14.4885 48.0868 12.219 44.8629Z" stroke="#2F80ED" stroke-width="3.56957"/>
<path d="M5.92181 61.2245C3.87329 59.3101 3.23079 55.9932 5.27991 54.0794C7.25916 52.2308 9.51388 52.4078 12.1751 54.865C14.0396 56.6707 15.1576 58.4439 13.466 61.0552C11.8257 63.5873 8.07332 63.2353 5.92181 61.2245Z" stroke="#2F80ED" stroke-width="3.56957"/>
</svg>
