<svg width="745" height="145" viewBox="0 0 745 145" fill="none" xmlns="http://www.w3.org/2000/svg">
<g clip-path="url(#clip0_169_1152)">
<rect width="745" height="145" fill="white"/>
<path d="M174.837 23.688V47H170.069V33.592C170.069 33.2827 170.074 32.9467 170.085 32.584C170.106 32.2213 170.138 31.8533 170.181 31.48L163.989 43.464C163.797 43.8373 163.536 44.12 163.205 44.312C162.885 44.504 162.517 44.6 162.101 44.6H161.365C160.949 44.6 160.576 44.504 160.245 44.312C159.925 44.12 159.669 43.8373 159.477 43.464L153.285 31.448C153.317 31.832 153.344 32.2107 153.365 32.584C153.386 32.9467 153.397 33.2827 153.397 33.592V47H148.629V23.688H152.757C152.992 23.688 153.194 23.6933 153.365 23.704C153.546 23.7147 153.706 23.7467 153.845 23.8C153.984 23.8533 154.106 23.9387 154.213 24.056C154.33 24.1627 154.442 24.3173 154.549 24.52L160.549 36.344C160.762 36.7493 160.965 37.1707 161.157 37.608C161.36 38.0453 161.552 38.4933 161.733 38.952C161.914 38.4827 162.101 38.024 162.293 37.576C162.496 37.128 162.709 36.7013 162.933 36.296L168.917 24.52C169.024 24.3173 169.13 24.1627 169.237 24.056C169.354 23.9387 169.482 23.8533 169.621 23.8C169.76 23.7467 169.914 23.7147 170.085 23.704C170.266 23.6933 170.474 23.688 170.709 23.688H174.837ZM203.668 35.336C203.668 37.0213 203.374 38.5893 202.788 40.04C202.212 41.4907 201.396 42.7547 200.34 43.832C199.284 44.8987 198.009 45.736 196.516 46.344C195.033 46.952 193.385 47.256 191.572 47.256C189.758 47.256 188.105 46.952 186.612 46.344C185.118 45.736 183.838 44.8987 182.772 43.832C181.716 42.7547 180.894 41.4907 180.308 40.04C179.732 38.5893 179.444 37.0213 179.444 35.336C179.444 33.6507 179.732 32.0827 180.308 30.632C180.894 29.1813 181.716 27.9227 182.772 26.856C183.838 25.7893 185.118 24.952 186.612 24.344C188.105 23.736 189.758 23.432 191.572 23.432C193.385 23.432 195.033 23.7413 196.516 24.36C198.009 24.968 199.284 25.8053 200.34 26.872C201.396 27.9387 202.212 29.1973 202.788 30.648C203.374 32.0987 203.668 33.6613 203.668 35.336ZM198.132 35.336C198.132 34.184 197.982 33.1493 197.684 32.232C197.385 31.304 196.953 30.52 196.388 29.88C195.833 29.24 195.15 28.7493 194.34 28.408C193.529 28.0667 192.606 27.896 191.572 27.896C190.526 27.896 189.593 28.0667 188.772 28.408C187.961 28.7493 187.273 29.24 186.708 29.88C186.153 30.52 185.726 31.304 185.428 32.232C185.129 33.1493 184.98 34.184 184.98 35.336C184.98 36.4987 185.129 37.544 185.428 38.472C185.726 39.3893 186.153 40.168 186.708 40.808C187.273 41.448 187.961 41.9387 188.772 42.28C189.593 42.6107 190.526 42.776 191.572 42.776C192.606 42.776 193.529 42.6107 194.34 42.28C195.15 41.9387 195.833 41.448 196.388 40.808C196.953 40.168 197.385 39.3893 197.684 38.472C197.982 37.544 198.132 36.4987 198.132 35.336ZM215.874 34.648C216.61 34.648 217.234 34.5573 217.746 34.376C218.269 34.184 218.696 33.9227 219.026 33.592C219.357 33.2613 219.597 32.8773 219.746 32.44C219.896 31.992 219.97 31.512 219.97 31C219.97 29.976 219.634 29.176 218.962 28.6C218.301 28.024 217.272 27.736 215.874 27.736H213.698V34.648H215.874ZM227.362 47H222.466C221.56 47 220.909 46.6587 220.514 45.976L216.642 39.208C216.461 38.92 216.258 38.712 216.034 38.584C215.81 38.4453 215.49 38.376 215.074 38.376H213.698V47H208.29V23.688H215.874C217.56 23.688 218.994 23.864 220.178 24.216C221.373 24.5573 222.344 25.0373 223.09 25.656C223.848 26.2747 224.397 27.0053 224.738 27.848C225.08 28.6907 225.25 29.608 225.25 30.6C225.25 31.3573 225.149 32.072 224.946 32.744C224.744 33.416 224.445 34.04 224.05 34.616C223.656 35.1813 223.165 35.688 222.578 36.136C222.002 36.584 221.336 36.952 220.578 37.24C220.93 37.4213 221.261 37.6507 221.57 37.928C221.88 38.1947 222.157 38.5147 222.402 38.888L227.362 47ZM236.202 27.848V33.288H243.53V37.288H236.202V42.84H245.77V47H230.762V23.688H245.77V27.848H236.202ZM267.297 27.976H260.737V47H255.329V27.976H248.769V23.688H267.297V27.976ZM293.834 35.336C293.834 37.0213 293.541 38.5893 292.954 40.04C292.378 41.4907 291.562 42.7547 290.506 43.832C289.45 44.8987 288.175 45.736 286.682 46.344C285.199 46.952 283.551 47.256 281.738 47.256C279.925 47.256 278.271 46.952 276.778 46.344C275.285 45.736 274.005 44.8987 272.938 43.832C271.882 42.7547 271.061 41.4907 270.474 40.04C269.898 38.5893 269.61 37.0213 269.61 35.336C269.61 33.6507 269.898 32.0827 270.474 30.632C271.061 29.1813 271.882 27.9227 272.938 26.856C274.005 25.7893 275.285 24.952 276.778 24.344C278.271 23.736 279.925 23.432 281.738 23.432C283.551 23.432 285.199 23.7413 286.682 24.36C288.175 24.968 289.45 25.8053 290.506 26.872C291.562 27.9387 292.378 29.1973 292.954 30.648C293.541 32.0987 293.834 33.6613 293.834 35.336ZM288.298 35.336C288.298 34.184 288.149 33.1493 287.85 32.232C287.551 31.304 287.119 30.52 286.554 29.88C285.999 29.24 285.317 28.7493 284.506 28.408C283.695 28.0667 282.773 27.896 281.738 27.896C280.693 27.896 279.759 28.0667 278.938 28.408C278.127 28.7493 277.439 29.24 276.874 29.88C276.319 30.52 275.893 31.304 275.594 32.232C275.295 33.1493 275.146 34.184 275.146 35.336C275.146 36.4987 275.295 37.544 275.594 38.472C275.893 39.3893 276.319 40.168 276.874 40.808C277.439 41.448 278.127 41.9387 278.938 42.28C279.759 42.6107 280.693 42.776 281.738 42.776C282.773 42.776 283.695 42.6107 284.506 42.28C285.317 41.9387 285.999 41.448 286.554 40.808C287.119 40.168 287.551 39.3893 287.85 38.472C288.149 37.544 288.298 36.4987 288.298 35.336ZM318.809 23.688V47H315.993C315.577 47 315.225 46.936 314.937 46.808C314.659 46.6693 314.382 46.4347 314.105 46.104L303.113 32.2C303.155 32.616 303.182 33.0213 303.193 33.416C303.214 33.8 303.225 34.1627 303.225 34.504V47H298.457V23.688H301.305C301.539 23.688 301.737 23.6987 301.897 23.72C302.057 23.7413 302.201 23.784 302.329 23.848C302.457 23.9013 302.579 23.9813 302.697 24.088C302.814 24.1947 302.947 24.3387 303.097 24.52L314.185 38.52C314.131 38.072 314.094 37.64 314.073 37.224C314.051 36.7973 314.041 36.3973 314.041 36.024V23.688H318.809ZM342.834 42.92C343.548 42.92 344.13 42.8293 344.578 42.648C345.036 42.4667 345.394 42.232 345.65 41.944C345.906 41.656 346.082 41.3307 346.178 40.968C346.274 40.6053 346.322 40.2373 346.322 39.864C346.322 39.4373 346.263 39.0533 346.146 38.712C346.039 38.3707 345.847 38.0827 345.57 37.848C345.303 37.6133 344.946 37.432 344.498 37.304C344.05 37.176 343.484 37.112 342.802 37.112H339.026V42.92H342.834ZM339.026 27.736V33.496H341.842C342.439 33.496 342.978 33.4533 343.458 33.368C343.938 33.2827 344.343 33.1333 344.674 32.92C345.015 32.7067 345.271 32.4133 345.442 32.04C345.623 31.6667 345.714 31.1973 345.714 30.632C345.714 30.0773 345.644 29.6187 345.506 29.256C345.367 28.8827 345.154 28.584 344.866 28.36C344.578 28.136 344.21 27.976 343.762 27.88C343.324 27.784 342.802 27.736 342.194 27.736H339.026ZM342.194 23.688C343.804 23.688 345.175 23.8373 346.306 24.136C347.436 24.4347 348.359 24.856 349.074 25.4C349.788 25.944 350.306 26.6053 350.626 27.384C350.956 28.1627 351.122 29.032 351.122 29.992C351.122 30.5147 351.047 31.0213 350.898 31.512C350.748 31.992 350.514 32.4453 350.194 32.872C349.874 33.288 349.463 33.672 348.962 34.024C348.46 34.376 347.858 34.68 347.154 34.936C348.69 35.3093 349.826 35.912 350.562 36.744C351.298 37.576 351.666 38.6533 351.666 39.976C351.666 40.968 351.474 41.8907 351.09 42.744C350.706 43.5973 350.14 44.344 349.394 44.984C348.658 45.6133 347.746 46.1093 346.658 46.472C345.57 46.824 344.327 47 342.93 47H333.618V23.688H342.194ZM368.409 38.088L366.249 31.704C366.089 31.2987 365.918 30.824 365.737 30.28C365.556 29.7253 365.374 29.128 365.193 28.488C365.033 29.1387 364.862 29.7413 364.681 30.296C364.5 30.8507 364.329 31.3307 364.169 31.736L362.025 38.088H368.409ZM377.001 47H372.809C372.34 47 371.961 46.8933 371.673 46.68C371.385 46.456 371.166 46.1733 371.017 45.832L369.641 41.768H360.777L359.401 45.832C359.284 46.1307 359.07 46.4027 358.761 46.648C358.462 46.8827 358.089 47 357.641 47H353.417L362.441 23.688H367.977L377.001 47ZM388.916 38.136V47H383.508V38.136L375.06 23.688H379.828C380.297 23.688 380.665 23.8 380.932 24.024C381.209 24.2373 381.438 24.5147 381.62 24.856L384.916 31.64C385.193 32.1733 385.444 32.6747 385.668 33.144C385.892 33.6027 386.089 34.056 386.26 34.504C386.42 34.0453 386.601 33.5867 386.804 33.128C387.017 32.6587 387.262 32.1627 387.54 31.64L390.804 24.856C390.878 24.7173 390.969 24.5787 391.076 24.44C391.182 24.3013 391.305 24.1787 391.444 24.072C391.593 23.9547 391.758 23.864 391.94 23.8C392.132 23.7253 392.34 23.688 392.564 23.688H397.364L388.916 38.136Z" fill="#063275"/>
<path d="M171.395 89.6841C171.822 90.4948 172.227 91.3374 172.611 92.2121C173.016 93.0868 173.4 93.9828 173.763 94.9001C174.126 93.9614 174.51 93.0548 174.915 92.1801C175.32 91.2841 175.736 90.4201 176.163 89.5881L188.131 66.0361C188.344 65.6308 188.558 65.3214 188.771 65.1081C189.006 64.8734 189.262 64.7028 189.539 64.5961C189.816 64.4894 190.126 64.4254 190.467 64.4041C190.83 64.3828 191.246 64.3721 191.715 64.3721H199.971V110.996H190.435V84.1801C190.435 82.8788 190.499 81.4708 190.627 79.9561L178.275 103.924C177.891 104.671 177.368 105.236 176.707 105.62C176.067 106.004 175.331 106.196 174.499 106.196H173.027C172.195 106.196 171.448 106.004 170.787 105.62C170.147 105.236 169.635 104.671 169.251 103.924L156.835 79.9241C156.92 80.6708 156.984 81.4174 157.027 82.1641C157.07 82.8894 157.091 83.5614 157.091 84.1801V110.996H147.555V64.3721H155.811C156.28 64.3721 156.686 64.3828 157.027 64.4041C157.39 64.4254 157.71 64.4894 157.987 64.5961C158.264 64.7028 158.51 64.8734 158.723 65.1081C158.958 65.3214 159.182 65.6308 159.395 66.0361L171.395 89.6841ZM254.976 87.6681C254.976 91.0388 254.389 94.1748 253.216 97.0761C252.064 99.9774 250.432 102.505 248.32 104.66C246.208 106.793 243.659 108.468 240.672 109.684C237.707 110.9 234.411 111.508 230.784 111.508C227.157 111.508 223.851 110.9 220.864 109.684C217.877 108.468 215.317 106.793 213.184 104.66C211.072 102.505 209.429 99.9774 208.256 97.0761C207.104 94.1748 206.528 91.0388 206.528 87.6681C206.528 84.2974 207.104 81.1614 208.256 78.2601C209.429 75.3588 211.072 72.8414 213.184 70.7081C215.317 68.5748 217.877 66.9001 220.864 65.6841C223.851 64.4681 227.157 63.8601 230.784 63.8601C234.411 63.8601 237.707 64.4788 240.672 65.7161C243.659 66.9321 246.208 68.6068 248.32 70.7401C250.432 72.8734 252.064 75.3908 253.216 78.2921C254.389 81.1934 254.976 84.3188 254.976 87.6681ZM243.904 87.6681C243.904 85.3641 243.605 83.2948 243.008 81.4601C242.411 79.6041 241.547 78.0361 240.416 76.7561C239.307 75.4761 237.941 74.4948 236.32 73.8121C234.699 73.1294 232.853 72.7881 230.784 72.7881C228.693 72.7881 226.827 73.1294 225.184 73.8121C223.563 74.4948 222.187 75.4761 221.056 76.7561C219.947 78.0361 219.093 79.6041 218.496 81.4601C217.899 83.2948 217.6 85.3641 217.6 87.6681C217.6 89.9934 217.899 92.0841 218.496 93.9401C219.093 95.7748 219.947 97.3321 221.056 98.6121C222.187 99.8921 223.563 100.873 225.184 101.556C226.827 102.217 228.693 102.548 230.784 102.548C232.853 102.548 234.699 102.217 236.32 101.556C237.941 100.873 239.307 99.8921 240.416 98.6121C241.547 97.3321 242.411 95.7748 243.008 93.9401C243.605 92.0841 243.904 89.9934 243.904 87.6681ZM261.428 110.996V64.3721H278.58C281.801 64.3721 284.542 64.6708 286.804 65.2681C289.065 65.8654 290.91 66.7081 292.34 67.7961C293.769 68.8841 294.804 70.2068 295.444 71.7641C296.105 73.3214 296.436 75.0601 296.436 76.9801C296.436 78.0254 296.286 79.0388 295.988 80.0201C295.689 80.9801 295.22 81.8868 294.58 82.7401C293.94 83.5934 293.118 84.3721 292.116 85.0761C291.113 85.7588 289.908 86.3561 288.5 86.8681C291.572 87.6148 293.844 88.8308 295.316 90.5161C296.788 92.1801 297.524 94.3241 297.524 96.9481C297.524 98.9321 297.14 100.777 296.372 102.484C295.604 104.191 294.473 105.684 292.98 106.964C291.508 108.223 289.684 109.215 287.508 109.94C285.332 110.644 282.846 110.996 280.052 110.996H261.428ZM272.244 91.2201V102.836H279.86C281.289 102.836 282.452 102.655 283.348 102.292C284.265 101.929 284.98 101.46 285.492 100.884C286.004 100.308 286.356 99.6574 286.548 98.9321C286.74 98.2068 286.836 97.4708 286.836 96.7241C286.836 95.8708 286.718 95.1028 286.484 94.4201C286.27 93.7374 285.886 93.1614 285.332 92.6921C284.798 92.2228 284.084 91.8601 283.188 91.6041C282.292 91.3481 281.161 91.2201 279.796 91.2201H272.244ZM272.244 83.9881H277.876C279.07 83.9881 280.148 83.9028 281.108 83.7321C282.068 83.5614 282.878 83.2628 283.54 82.8361C284.222 82.4094 284.734 81.8228 285.076 81.0761C285.438 80.3294 285.62 79.3908 285.62 78.2601C285.62 77.1508 285.481 76.2334 285.204 75.5081C284.926 74.7614 284.5 74.1641 283.924 73.7161C283.348 73.2681 282.612 72.9481 281.716 72.7561C280.841 72.5641 279.796 72.4681 278.58 72.4681H272.244V83.9881ZM316.548 110.996H305.668V64.3721H316.548V110.996ZM337.304 102.356H354.584V110.996H326.488V64.3721H337.304V102.356ZM390.971 64.3721V72.6921H371.835V83.5721H386.491V91.5721H371.835V102.676H390.971V110.996H360.955V64.3721H390.971ZM422.894 95.4121V110.996H412.078V64.3721H428.526C431.811 64.3721 434.627 64.7668 436.974 65.5561C439.342 66.3241 441.283 67.3908 442.798 68.7561C444.334 70.1214 445.464 71.7321 446.19 73.5881C446.915 75.4441 447.278 77.4494 447.278 79.6041C447.278 81.9294 446.904 84.0628 446.158 86.0041C445.411 87.9454 444.27 89.6094 442.734 90.9961C441.198 92.3828 439.246 93.4708 436.878 94.2601C434.531 95.0281 431.747 95.4121 428.526 95.4121H422.894ZM422.894 87.2521H428.526C431.342 87.2521 433.368 86.5801 434.606 85.2361C435.843 83.8921 436.462 82.0148 436.462 79.6041C436.462 78.5374 436.302 77.5668 435.982 76.6921C435.662 75.8174 435.171 75.0708 434.51 74.4521C433.87 73.8121 433.048 73.3214 432.046 72.9801C431.064 72.6388 429.891 72.4681 428.526 72.4681H422.894V87.2521ZM500.186 87.6681C500.186 91.0388 499.599 94.1748 498.426 97.0761C497.274 99.9774 495.642 102.505 493.53 104.66C491.418 106.793 488.869 108.468 485.882 109.684C482.917 110.9 479.621 111.508 475.994 111.508C472.367 111.508 469.061 110.9 466.074 109.684C463.087 108.468 460.527 106.793 458.394 104.66C456.282 102.505 454.639 99.9774 453.466 97.0761C452.314 94.1748 451.738 91.0388 451.738 87.6681C451.738 84.2974 452.314 81.1614 453.466 78.2601C454.639 75.3588 456.282 72.8414 458.394 70.7081C460.527 68.5748 463.087 66.9001 466.074 65.6841C469.061 64.4681 472.367 63.8601 475.994 63.8601C479.621 63.8601 482.917 64.4788 485.882 65.7161C488.869 66.9321 491.418 68.6068 493.53 70.7401C495.642 72.8734 497.274 75.3908 498.426 78.2921C499.599 81.1934 500.186 84.3188 500.186 87.6681ZM489.114 87.6681C489.114 85.3641 488.815 83.2948 488.218 81.4601C487.621 79.6041 486.757 78.0361 485.626 76.7561C484.517 75.4761 483.151 74.4948 481.53 73.8121C479.909 73.1294 478.063 72.7881 475.994 72.7881C473.903 72.7881 472.037 73.1294 470.394 73.8121C468.773 74.4948 467.397 75.4761 466.266 76.7561C465.157 78.0361 464.303 79.6041 463.706 81.4601C463.109 83.2948 462.81 85.3641 462.81 87.6681C462.81 89.9934 463.109 92.0841 463.706 93.9401C464.303 95.7748 465.157 97.3321 466.266 98.6121C467.397 99.8921 468.773 100.873 470.394 101.556C472.037 102.217 473.903 102.548 475.994 102.548C478.063 102.548 479.909 102.217 481.53 101.556C483.151 100.873 484.517 99.8921 485.626 98.6121C486.757 97.3321 487.621 95.7748 488.218 93.9401C488.815 92.0841 489.114 89.9934 489.114 87.6681ZM548.942 87.6681C548.942 91.0388 548.355 94.1534 547.182 97.0121C546.03 99.8494 544.398 102.313 542.286 104.404C540.174 106.473 537.624 108.095 534.638 109.268C531.672 110.42 528.376 110.996 524.75 110.996H506.638V64.3721H524.75C528.376 64.3721 531.672 64.9588 534.638 66.1321C537.624 67.3054 540.174 68.9268 542.286 70.9961C544.398 73.0654 546.03 75.5294 547.182 78.3881C548.355 81.2254 548.942 84.3188 548.942 87.6681ZM537.87 87.6681C537.87 85.3641 537.571 83.2841 536.974 81.4281C536.376 79.5721 535.512 78.0041 534.382 76.7241C533.272 75.4228 531.907 74.4308 530.286 73.7481C528.664 73.0441 526.819 72.6921 524.75 72.6921H517.518V102.676H524.75C526.819 102.676 528.664 102.335 530.286 101.652C531.907 100.948 533.272 99.9561 534.382 98.6761C535.512 97.3748 536.376 95.7961 536.974 93.9401C537.571 92.0841 537.87 89.9934 537.87 87.6681ZM567.258 110.996H556.378V64.3721H567.258V110.996ZM620.59 110.996H612.206C611.267 110.996 610.488 110.783 609.87 110.356C609.272 109.908 608.856 109.343 608.622 108.66L605.87 100.532H588.142L585.39 108.66C585.176 109.257 584.76 109.801 584.142 110.292C583.523 110.761 582.766 110.996 581.87 110.996H573.422L591.47 64.3721H602.542L620.59 110.996ZM590.638 93.1721H603.374L599.086 80.4041C598.808 79.5934 598.478 78.6441 598.094 77.5561C597.731 76.4468 597.368 75.2521 597.006 73.9721C596.664 75.2734 596.312 76.4788 595.95 77.5881C595.587 78.6974 595.246 79.6574 594.926 80.4681L590.638 93.1721ZM654.396 64.3721V72.9481H641.276V110.996H630.46V72.9481H617.34V64.3721H654.396ZM670.949 93.7481V110.996H660.133V64.3721H675.301C678.671 64.3721 681.541 64.7241 683.909 65.4281C686.298 66.1108 688.239 67.0708 689.733 68.3081C691.247 69.5454 692.346 71.0068 693.029 72.6921C693.711 74.3774 694.053 76.2121 694.053 78.1961C694.053 79.7108 693.85 81.1401 693.445 82.4841C693.039 83.8281 692.431 85.0761 691.621 86.2281C690.831 87.3588 689.85 88.3721 688.677 89.2681C687.525 90.1641 686.191 90.9001 684.677 91.4761C685.402 91.8388 686.074 92.2868 686.693 92.8201C687.333 93.3534 687.887 94.0041 688.357 94.7721L698.277 110.996H688.485C686.671 110.996 685.37 110.313 684.581 108.948L676.837 95.4121C676.495 94.8148 676.09 94.3881 675.621 94.1321C675.173 93.8761 674.533 93.7481 673.701 93.7481H670.949ZM670.949 86.2921H675.301C676.773 86.2921 678.021 86.1108 679.045 85.7481C680.09 85.3641 680.943 84.8414 681.605 84.1801C682.266 83.5188 682.746 82.7508 683.045 81.8761C683.343 80.9801 683.493 80.0201 683.493 78.9961C683.493 76.9481 682.821 75.3481 681.477 74.1961C680.154 73.0441 678.095 72.4681 675.301 72.4681H670.949V86.2921ZM727.207 93.2681V110.996H716.391V93.2681L699.495 64.3721H709.031C709.97 64.3721 710.716 64.5961 711.271 65.0441C711.826 65.4708 712.274 66.0254 712.615 66.7081L719.207 80.2761C719.74 81.3641 720.231 82.3668 720.679 83.2841C721.127 84.2014 721.522 85.1081 721.863 86.0041C722.183 85.0868 722.567 84.1694 723.015 83.2521C723.463 82.3348 723.943 81.3428 724.455 80.2761L730.983 66.7081C731.111 66.4308 731.282 66.1534 731.495 65.8761C731.73 65.5988 731.986 65.3534 732.263 65.1401C732.562 64.9054 732.892 64.7241 733.255 64.5961C733.639 64.4468 734.055 64.3721 734.503 64.3721H744.103L727.207 93.2681Z" fill="#2F80ED"/>
<path d="M62.1864 38.205C54.7488 43.1759 55.0626 53.3761 55.0626 53.3761C55.0626 53.3761 44.9062 44.9543 33.6675 48.8781C22.4288 52.8018 17.5721 67.3621 25.1701 75.929C39.5011 90.6616 47.9068 91.5864 69.3252 94.2684C74.011 87.787 93.1499 71.2691 90.4088 49.066C88.949 37.2421 71.044 32.285 62.1864 38.205Z" fill="#CCE1F0"/>
<path d="M93.3722 123.349C94.7899 129.695 88.8792 144.528 74.8 141.557C65.7411 139.645 65.1903 131.848 64.3679 127.736C63.2275 122.034 68.1439 111.898 74.5103 105.259C79.4657 107.241 90.2491 109.371 93.3722 123.349Z" fill="#CCE1F0"/>
<path d="M85.7043 40.0115C88.2182 41.6721 89.8285 43.4882 91.1796 45.4434C92.5296 47.3984 93.6175 49.5177 94.2046 52.4328C95.2433 57.5909 93.2905 63.3958 91.1796 70.0506C88.1589 79.5735 81.9492 87.7921 77.148 96.4816L71.9736 94.9456C71.9736 94.9456 80.7927 83.5046 84.3494 75.8876C89.3367 65.2065 96.2354 46.3679 81.263 41.315C67.9276 36.8147 57.4551 49.0198 59.3779 61.069C59.3779 61.069 55.866 56.9454 54.5574 56.1314C46.4336 49.7427 32.0133 52.4328 28.5525 62.6763C23.634 77.2339 35.0876 85.4453 46.4336 90.5095C54.4517 94.0883 58.742 93.3638 67.6823 95.7788C79.2614 98.9064 89.861 103.919 93.6762 113.143C96.821 120.75 96.1465 130.683 88.7297 136.076C85.5097 138.417 83.0662 139.065 79.0999 139.434C71.4243 140.148 65.054 138.365 60.8547 131.91C57.4035 126.606 57.7893 121.157 59.3779 115.779C61.035 110.17 67.2751 102.488 67.2751 102.488L72.3172 104.162C72.3172 104.162 61.1811 116.111 62.4492 124.995C63.2332 130.488 68.7855 132.921 74.3743 133.555C83.7299 134.615 94.6026 127.794 91.3939 115.779C89.0038 106.83 73.9593 102.367 66.4345 100.089C52.0554 95.7356 41.0841 95.6705 30.1776 87.2324C27.3725 85.0616 26.1762 84.2807 24.3125 81.7656C22.1845 78.8939 21.0272 76.978 20.5105 73.4431C19.9612 69.6852 20.6218 67.3658 22.0285 63.8373C23.3708 60.4707 24.5432 58.5943 27.2052 56.1314C33.1097 50.6686 42.0934 46.2372 50.5673 50.3077C53.1965 51.5706 56.5241 54.8101 56.5241 54.8101C56.5241 54.8101 57.3879 46.6731 60.5074 42.8724C62.9944 39.8422 65.0749 38.3993 68.8239 37.2432C72.4009 36.14 76.0563 36.496 78.4089 37.077C80.7616 37.658 83.1426 38.3193 85.7043 40.0115Z" fill="#2F80ED"/>
<path d="M20.9667 40.1303C20.5935 44.275 17.0901 47.3467 13.1416 46.9912C9.19316 46.6356 6.29487 42.9874 6.6681 38.8427C7.04133 34.6981 10.5448 31.6264 14.4932 31.9819C18.4417 32.3375 21.34 35.9857 20.9667 40.1303Z" fill="#CCE1F0"/>
<path d="M14.9262 59.4954C14.553 63.6401 11.0495 66.7118 7.10109 66.3562C3.15263 66.0006 0.254343 62.3525 0.627575 58.2078C1.00081 54.0631 4.50423 50.9914 8.45268 51.347C12.4011 51.7025 15.2994 55.3507 14.9262 59.4954Z" fill="#CCE1F0"/>
<path d="M92.5937 13.9374C91.9777 20.7781 86.2591 25.8536 79.8209 25.2738C73.3827 24.6941 68.6629 18.6786 69.2789 11.8379C69.8949 4.99725 75.6135 -0.0782286 82.0517 0.501537C88.4899 1.0813 93.2097 7.09676 92.5937 13.9374Z" fill="#CCE1F0"/>
<path d="M63.2677 14.8841C62.7944 20.1401 58.4005 24.0398 53.4537 23.5944C48.5069 23.1489 44.8805 18.5269 45.3538 13.2709C45.8271 8.01487 50.2209 4.11514 55.1677 4.5606C60.1145 5.00607 63.741 9.62803 63.2677 14.8841Z" fill="#CCE1F0"/>
<path d="M37.9576 25.7004C37.5676 30.0308 33.9475 33.2438 29.8718 32.8768C25.7962 32.5098 22.8083 28.7017 23.1983 24.3713C23.5882 20.0408 27.2084 16.8278 31.284 17.1948C35.3597 17.5618 38.3476 21.3699 37.9576 25.7004Z" fill="#CCE1F0"/>
<path d="M68.0859 16.7467C67.7424 23.5678 72.537 29.3425 78.795 29.6448C85.3005 31.4031 90.6369 26.1374 90.748 17.8414C90.688 11.8891 86.8773 5.45593 80.0918 5.09518C73.2757 4.73279 69.1638 10.5788 68.0859 16.7467Z" stroke="#2F80ED" stroke-width="3.56957"/>
<path d="M44.8751 19.181C44.6332 14.2477 47.8946 9.26082 52.8406 9.34714C57.618 9.43051 60.2557 12.4162 60.6066 18.7871C60.7491 23.3574 59.9862 26.9719 54.6361 28.2067C49.4482 29.404 45.1291 24.3623 44.8751 19.181Z" stroke="#2F80ED" stroke-width="3.56957"/>
<path d="M26.5201 32.1874C24.7939 28.3232 25.8483 23.3309 29.8244 21.8675C33.6649 20.4541 36.6989 22.0209 38.9589 26.9992C40.4929 30.6043 41.0071 33.7267 37.1188 36.3701C33.3485 38.9335 28.333 36.2458 26.5201 32.1874Z" stroke="#2F80ED" stroke-width="3.56957"/>
<path d="M12.719 44.8628C10.5581 41.7932 10.6249 37.2692 13.8359 35.3201C16.9374 33.4374 19.8448 34.2855 22.6602 38.2341C24.6097 41.1109 25.5893 43.741 22.656 46.7022C19.8115 49.5737 14.9885 48.0868 12.719 44.8628Z" stroke="#2F80ED" stroke-width="3.56957"/>
<path d="M6.42181 61.2245C4.37329 59.31 3.73079 55.9932 5.77991 54.0793C7.75916 52.2307 10.0139 52.4077 12.6751 54.8649C14.5396 56.6707 15.6576 58.4438 13.966 61.0551C12.3257 63.5873 8.57332 63.2352 6.42181 61.2245Z" stroke="#2F80ED" stroke-width="3.56957"/>
</g>
<defs>
<clipPath id="clip0_169_1152">
<rect width="745" height="145" fill="white"/>
</clipPath>
</defs>
</svg>
